<?xml version="1.0" encoding="UTF-8" standalone="no"?>
<!-- Created with Inkscape (http://www.inkscape.org/) -->

<svg
   width="32"
   height="32"
   viewBox="0 0 12.534803 20"
   version="1.1"
   id="svg1"
   sodipodi:docname="FontAwesome5.svg"
   inkscape:version="1.3.2 (091e20e, 2023-11-25, custom)"
   xmlns:inkscape="http://www.inkscape.org/namespaces/inkscape"
   xmlns:sodipodi="http://sodipodi.sourceforge.net/DTD/sodipodi-0.dtd"
   xmlns="http://www.w3.org/2000/svg"
   xmlns:svg="http://www.w3.org/2000/svg">
  <sodipodi:namedview
     id="namedview1"
     pagecolor="#505050"
     bordercolor="#eeeeee"
     borderopacity="1"
     inkscape:showpageshadow="0"
     inkscape:pageopacity="0"
     inkscape:pagecheckerboard="0"
     inkscape:deskcolor="#505050"
     inkscape:document-units="mm"
     inkscape:zoom="11.21762"
     inkscape:cx="-1.2926093"
     inkscape:cy="-0.31200913"
     inkscape:window-width="1920"
     inkscape:window-height="1001"
     inkscape:window-x="-9"
     inkscape:window-y="-9"
     inkscape:window-maximized="1"
     inkscape:current-layer="layer1" />
  <defs
     id="defs1" />
  <g
     inkscape:label="Layer 1"
     inkscape:groupmode="layer"
     id="layer1"
     transform="translate(-0.0943456,-2.5943456)">
    <text
       xml:space="preserve"
       style="font-size:6.66667px;fill:#8eef97;fill-opacity:1;stroke-width:2;stroke-linecap:round;stroke-linejoin:round"
       x="12.313103"
       y="13.205701"
       id="text1"><tspan
         sodipodi:role="line"
         id="tspan1"
         x="12.313103"
         y="13.205701" /></text>
    <path
       d="M 2.339208,4.4036596 V 5.464346 H -1.493199 V 8.9870635 H 1.7585402 V 10.04775 H -1.493199 v 4.924062 H -4.5591246 V 4.4036596 Z m 5.8299038,0 2.9420502,10.5681524 H 8.0297515 L 7.4026304,12.68011 H 4.2205712 L 3.5469967,14.971812 H 2.34695 L 5.4748135,4.4036596 Z M 4.5225184,11.619424 h 2.5936492 l -1.2465,-4.6840531 z M 19.232767,4.4036596 18.830171,6.6256814 H 13.820944 L 13.42609,8.8864145 q 1.269727,-0.8593883 2.63236,-0.8593883 1.649097,0 2.702041,0.9677796 1.060686,0.9677795 1.060686,2.4775152 0,1.687808 -1.192304,2.686556 -1.184562,0.991007 -3.205286,0.991007 -3.654336,0 -3.654336,-2.508485 0,-0.363885 0.108392,-0.898099 l 1.370376,-0.286463 q -0.131618,0.634863 -0.131618,1.161335 0,1.579417 1.680065,1.579417 2.012981,0 2.012981,-2.856886 0,-2.0207233 -1.711034,-2.0207233 -1.021975,0 -1.819426,1.0839133 L 12.055714,10.109688 13.04672,4.4036596 Z"
       id="text3"
       style="font-size:15.8561px;font-family:'Britannic Bold';-inkscape-font-specification:'Britannic Bold, ';fill:#8eef97;stroke-width:2.37842;stroke-linecap:round;stroke-linejoin:round"
       transform="scale(0.7913593,1.2636485)"
       aria-label="FA5" />
  </g>
</svg>
