<?xml version="1.0" encoding="UTF-8" standalone="no"?>
<!-- Created with Inkscape (http://www.inkscape.org/) -->

<svg
   width="32"
   height="32"
   viewBox="0 0 12.534803 20"
   version="1.1"
   id="svg1"
   sodipodi:docname="FontAwesome6.svg"
   inkscape:version="1.3.2 (091e20e, 2023-11-25, custom)"
   xmlns:inkscape="http://www.inkscape.org/namespaces/inkscape"
   xmlns:sodipodi="http://sodipodi.sourceforge.net/DTD/sodipodi-0.dtd"
   xmlns="http://www.w3.org/2000/svg"
   xmlns:svg="http://www.w3.org/2000/svg">
  <sodipodi:namedview
     id="namedview1"
     pagecolor="#505050"
     bordercolor="#eeeeee"
     borderopacity="1"
     inkscape:showpageshadow="0"
     inkscape:pageopacity="0"
     inkscape:pagecheckerboard="0"
     inkscape:deskcolor="#505050"
     inkscape:document-units="mm"
     inkscape:zoom="11.21762"
     inkscape:cx="-1.2926093"
     inkscape:cy="-0.31200913"
     inkscape:window-width="1920"
     inkscape:window-height="1001"
     inkscape:window-x="-9"
     inkscape:window-y="-9"
     inkscape:window-maximized="1"
     inkscape:current-layer="layer1" />
  <defs
     id="defs1" />
  <g
     inkscape:label="Layer 1"
     inkscape:groupmode="layer"
     id="layer1"
     transform="translate(-0.0943456,-2.5943456)">
    <text
       xml:space="preserve"
       style="font-size:6.66667px;fill:#8eef97;fill-opacity:1;stroke-width:2;stroke-linecap:round;stroke-linejoin:round"
       x="12.313103"
       y="13.205701"
       id="text1"><tspan
         sodipodi:role="line"
         id="tspan1"
         x="12.313103"
         y="13.205701" /></text>
    <path
       d="M 2.339208,4.4036596 V 5.464346 H -1.493199 V 8.9870635 H 1.7585402 V 10.04775 H -1.493199 v 4.924062 H -4.5591246 V 4.4036596 Z m 5.8299038,0 2.9420502,10.5681524 H 8.0297515 L 7.4026304,12.68011 H 4.2205712 L 3.5469967,14.971812 H 2.34695 L 5.4748135,4.4036596 Z M 4.5225184,11.619424 h 2.5936492 l -1.2465,-4.6840531 z M 19.565683,7.136669 18.156596,7.3689361 q 0.09291,-0.5109876 0.09291,-0.8748727 0,-1.4245715 -1.347149,-1.4245715 -0.967779,0 -1.362634,0.7664814 -0.387111,0.7587392 -0.572925,2.9885033 0.96778,-0.8439038 2.012981,-0.8439038 1.362634,0 2.260733,0.9522951 0.8981,0.9522951 0.8981,2.4000931 0,1.742003 -1.060686,2.787205 -1.052945,1.045202 -2.810432,1.045202 -4.521466,0 -4.521466,-5.2956895 0,-2.5781647 1.292953,-4.1111275 1.300696,-1.5329628 3.484007,-1.5329628 3.073667,0 3.073667,2.42332 0,0.2090403 -0.03097,0.4877608 z m -3.484006,1.9278169 q -1.215531,0 -1.215531,2.4465471 0,2.810431 1.145851,2.810431 1.114882,0 1.114882,-2.973018 0,-2.2839601 -1.045202,-2.2839601 z"
       id="text3"
       style="font-size:15.8561px;font-family:'Britannic Bold';-inkscape-font-specification:'Britannic Bold, ';fill:#8eef97;stroke-width:2.37842;stroke-linecap:round;stroke-linejoin:round"
       transform="scale(0.7913593,1.2636485)"
       aria-label="FA6" />
  </g>
</svg>
