<?xml version="1.0" encoding="UTF-8" standalone="no"?>
<!-- Created with Inkscape (http://www.inkscape.org/) -->

<svg
   width="32"
   height="32"
   viewBox="0 0 12.534803 20"
   version="1.1"
   id="svg1"
   sodipodi:docname="Foundation.svg"
   inkscape:version="1.3.2 (091e20e, 2023-11-25, custom)"
   xmlns:inkscape="http://www.inkscape.org/namespaces/inkscape"
   xmlns:sodipodi="http://sodipodi.sourceforge.net/DTD/sodipodi-0.dtd"
   xmlns="http://www.w3.org/2000/svg"
   xmlns:svg="http://www.w3.org/2000/svg">
  <sodipodi:namedview
     id="namedview1"
     pagecolor="#505050"
     bordercolor="#eeeeee"
     borderopacity="1"
     inkscape:showpageshadow="0"
     inkscape:pageopacity="0"
     inkscape:pagecheckerboard="0"
     inkscape:deskcolor="#505050"
     inkscape:document-units="mm"
     inkscape:zoom="11.21762"
     inkscape:cx="18.141102"
     inkscape:cy="4.6801369"
     inkscape:window-width="1920"
     inkscape:window-height="1001"
     inkscape:window-x="-9"
     inkscape:window-y="-9"
     inkscape:window-maximized="1"
     inkscape:current-layer="layer1" />
  <defs
     id="defs1" />
  <g
     inkscape:label="Layer 1"
     inkscape:groupmode="layer"
     id="layer1"
     transform="translate(-0.0943456,-2.5943456)">
    <text
       xml:space="preserve"
       style="font-size:6.66667px;fill:#8eef97;fill-opacity:1;stroke-width:2;stroke-linecap:round;stroke-linejoin:round"
       x="12.313103"
       y="13.205701"
       id="text1"><tspan
         sodipodi:role="line"
         id="tspan1"
         x="12.313103"
         y="13.205701" /></text>
    <path
       d="M 2.1498663,4.331357 V 5.3746308 H -1.6196265 V 8.8395181 H 1.578731 V 9.8827918 H -1.6196265 V 14.726019 H -4.6352207 V 4.331357 Z M 7.411926,4.1485937 q 4.538622,0 4.538622,5.3762867 0,5.3762866 -4.6223886,5.3762866 -4.6223881,0 -4.6223881,-5.4981288 0,-5.2544445 4.7061547,-5.2544445 z m -0.083767,0.83005 q -0.8528953,0 -1.1575008,0.9442769 -0.2969903,0.9366619 -0.2969903,3.6019598 0,2.6652976 0.2969903,3.6095746 0.3046055,0.936662 1.1575008,0.936662 0.8528954,0 1.1498857,-0.936662 0.3046055,-0.944277 0.3046055,-3.6095746 0,-2.6576828 -0.3046055,-3.6019598 Q 8.1810548,4.9786437 7.3281594,4.9786437 Z M 21.096326,4.331357 v 6.975465 q 0,3.58673 -3.967486,3.58673 -3.952257,0 -3.952257,-3.58673 V 4.331357 h 3.015595 v 7.066847 q 0,1.370725 0.388372,1.873324 0.395987,0.502599 1.454491,0.502599 2.048472,0 2.048472,-2.467305 V 4.331357 Z"
       id="text3"
       style="font-size:15.5958px;font-family:'Britannic Bold';-inkscape-font-specification:'Britannic Bold, ';fill:#8eef97;stroke-width:2.33937;stroke-linecap:round;stroke-linejoin:round"
       transform="scale(0.7783675,1.2847402)"
       aria-label="FOU" />
  </g>
</svg>
