<?xml version="1.0" encoding="UTF-8" standalone="no"?>
<!-- Created with Inkscape (http://www.inkscape.org/) -->

<svg
   width="32"
   height="32"
   viewBox="0 0 12.534803 20"
   version="1.1"
   id="svg1"
   sodipodi:docname="MaterialCommunityIcons.svg"
   inkscape:version="1.3.2 (091e20e, 2023-11-25, custom)"
   xmlns:inkscape="http://www.inkscape.org/namespaces/inkscape"
   xmlns:sodipodi="http://sodipodi.sourceforge.net/DTD/sodipodi-0.dtd"
   xmlns="http://www.w3.org/2000/svg"
   xmlns:svg="http://www.w3.org/2000/svg">
  <sodipodi:namedview
     id="namedview1"
     pagecolor="#505050"
     bordercolor="#eeeeee"
     borderopacity="1"
     inkscape:showpageshadow="0"
     inkscape:pageopacity="0"
     inkscape:pagecheckerboard="0"
     inkscape:deskcolor="#505050"
     inkscape:document-units="mm"
     inkscape:zoom="11.21762"
     inkscape:cx="18.141102"
     inkscape:cy="4.6801369"
     inkscape:window-width="1920"
     inkscape:window-height="1001"
     inkscape:window-x="-9"
     inkscape:window-y="-9"
     inkscape:window-maximized="1"
     inkscape:current-layer="layer1" />
  <defs
     id="defs1" />
  <g
     inkscape:label="Layer 1"
     inkscape:groupmode="layer"
     id="layer1"
     transform="translate(-0.0943456,-2.5943456)">
    <text
       xml:space="preserve"
       style="font-size:6.66667px;fill:#8eef97;fill-opacity:1;stroke-width:2;stroke-linecap:round;stroke-linejoin:round"
       x="12.313103"
       y="13.205701"
       id="text1"><tspan
         sodipodi:role="line"
         id="tspan1"
         x="12.313103"
         y="13.205701" /></text>
    <path
       d="M 5.5528228,4.4934221 V 15.276989 H 2.5350041 V 7.7719425 L 0.43359108,15.276989 H -1.3123197 L -3.4690331,7.8983432 V 15.276989 H -4.5197396 V 4.4934221 h 3.1758197 L 0.50469152,11.003062 2.3454029,4.4934221 Z m 9.0060562,6.4543399 1.335108,0.347602 q 0.0316,0.410803 0.0316,0.711005 0,1.572109 -1.137607,2.512215 -1.137607,0.940106 -3.049419,0.940106 -4.7953294,0 -4.7953294,-5.395733 0,-2.5596162 1.3983087,-4.1475261 1.3983086,-1.5958099 3.6419227,-1.5958099 3.499722,0 3.499722,3.3654209 l -1.343009,0.6162038 q 0.0237,-0.4740029 0.0237,-0.7347045 0,-2.3858148 -1.911812,-2.3858148 -2.022412,0 -2.022412,5.0639316 0,4.352927 2.259414,4.352927 0.932206,0 1.54841,-0.742605 0.624103,-0.742604 0.624103,-1.856511 0,-0.355503 -0.1027,-1.050707 z M 20.246915,4.4934221 V 15.276989 H 17.118496 V 4.4934221 Z"
       id="text3"
       style="font-size:16.1793px;font-family:'Britannic Bold';-inkscape-font-specification:'Britannic Bold, ';fill:#8eef97;stroke-width:2.42689;stroke-linecap:round;stroke-linejoin:round"
       transform="scale(0.80748993,1.2384055)"
       aria-label="MCI" />
  </g>
</svg>
